<svg width="226" height="290" viewBox="0 0 226 290" fill="none" xmlns="http://www.w3.org/2000/svg">
<rect width="197.647" height="255.882" fill="#FFAE1F"/>
<rect width="197.647" height="255.882" transform="translate(14 4.53125)" fill="#6AABAB"/>
<rect width="197.647" height="255.882" transform="translate(28 9.0625)" fill="#FFAE1F"/>
<rect width="36.0059" height="9.1517" transform="matrix(0.976952 0.213459 -0.0900317 0.995939 0.823944 236.2)" fill="#D9D9D9"/>
<ellipse cx="31.3207" cy="247.476" rx="1.48007" ry="2.30103" fill="#262626"/>
<ellipse cx="4.67934" cy="241.724" rx="1.48007" ry="2.30103" fill="#262626"/>
<rect width="36.0059" height="9.1517" transform="matrix(0.976952 0.213459 -0.0900318 0.995939 0.823944 208.587)" fill="#D9D9D9"/>
<ellipse cx="31.3206" cy="219.864" rx="1.48007" ry="2.30103" fill="#262626"/>
<ellipse cx="4.67934" cy="214.111" rx="1.48007" ry="2.30103" fill="#262626"/>
<rect width="36.0059" height="9.1517" transform="matrix(0.976952 0.213459 -0.0900318 0.995939 0.823944 178.674)" fill="#D9D9D9"/>
<ellipse cx="31.3207" cy="189.95" rx="1.48007" ry="2.30103" fill="#262626"/>
<ellipse cx="4.67934" cy="184.198" rx="1.48007" ry="2.30103" fill="#262626"/>
<rect width="36.0059" height="9.1517" transform="matrix(0.976952 0.213459 -0.0900319 0.995939 0.823944 151.062)" fill="#D9D9D9"/>
<ellipse cx="31.3206" cy="162.338" rx="1.48007" ry="2.30103" fill="#262626"/>
<ellipse cx="4.67934" cy="156.586" rx="1.48007" ry="2.30103" fill="#262626"/>
<rect width="36.0059" height="9.1517" transform="matrix(0.976952 0.213459 -0.0900319 0.995939 0.823944 123.449)" fill="#D9D9D9"/>
<ellipse cx="31.3206" cy="134.726" rx="1.48007" ry="2.30103" fill="#262626"/>
<ellipse cx="4.67934" cy="128.973" rx="1.48007" ry="2.30103" fill="#262626"/>
<rect width="36.0059" height="9.1517" transform="matrix(0.976952 0.213459 -0.0900319 0.995939 0.823944 95.837)" fill="#D9D9D9"/>
<ellipse cx="31.3206" cy="107.113" rx="1.48007" ry="2.30103" fill="#262626"/>
<ellipse cx="4.67934" cy="101.361" rx="1.48007" ry="2.30103" fill="#262626"/>
<rect width="36.0059" height="9.1517" transform="matrix(0.976952 0.213459 -0.0900319 0.995939 0.823944 68.2247)" fill="#D9D9D9"/>
<ellipse cx="31.3206" cy="79.5012" rx="1.48007" ry="2.30103" fill="#262626"/>
<ellipse cx="4.67934" cy="73.7486" rx="1.48007" ry="2.30103" fill="#262626"/>
<rect width="36.0059" height="9.1517" transform="matrix(0.976952 0.213459 -0.0900319 0.995939 0.823944 40.6123)" fill="#D9D9D9"/>
<ellipse cx="31.3206" cy="51.8888" rx="1.48007" ry="2.30103" fill="#262626"/>
<ellipse cx="4.67934" cy="46.1362" rx="1.48007" ry="2.30103" fill="#262626"/>
<rect width="36.0059" height="9.1517" transform="matrix(0.976952 0.213459 -0.0900319 0.995939 0.823944 13)" fill="#D9D9D9"/>
<ellipse cx="31.3206" cy="24.2765" rx="1.48007" ry="2.30103" fill="#262626"/>
<ellipse cx="4.67934" cy="18.5239" rx="1.48007" ry="2.30103" fill="#262626"/>
<path d="M141.139 70.12H110.635C106.502 70.2853 103.526 71.2773 101.707 73.096C99.8885 74.7493 98.8965 77.6427 98.7312 81.776V113.024C98.7312 116.331 99.3925 118.893 100.715 120.712C102.203 122.531 105.097 123.192 109.395 122.696C118.654 121.704 127.995 120.96 137.419 120.464C146.843 119.803 156.267 119.307 165.691 118.976C168.006 118.811 170.403 118.811 172.883 118.976C175.529 119.141 177.761 119.72 179.579 120.712C181.563 121.704 183.464 123.275 185.283 125.424C187.102 127.573 188.094 129.557 188.259 131.376C188.425 133.029 187.598 135.013 185.779 137.328C183.961 139.477 182.142 140.965 180.323 141.792C176.851 142.949 173.214 143.941 169.411 144.768C165.609 145.429 161.723 145.925 157.755 146.256C150.976 146.752 144.115 147.165 137.171 147.496C130.227 147.827 123.366 148.157 116.587 148.488C110.47 148.653 106.419 149.563 104.435 151.216C102.616 152.869 101.79 156.755 101.955 162.872C102.12 167.997 102.368 173.123 102.699 178.248C103.03 183.373 103.278 188.581 103.443 193.872C103.774 198.336 104.931 201.229 106.915 202.552C109.064 203.875 112.206 203.709 116.339 202.056C125.598 198.253 134.774 194.451 143.867 190.648C153.126 186.68 162.302 182.877 171.395 179.24C174.041 178.083 176.603 177.008 179.083 176.016C181.729 174.859 184.374 173.867 187.019 173.04C189.334 172.048 191.566 171.717 193.715 172.048C195.865 172.213 197.601 173.536 198.923 176.016C200.246 178.661 201.155 181.307 201.651 183.952C202.147 186.597 200.99 188.995 198.179 191.144C195.369 193.459 192.393 195.773 189.251 198.088C186.11 200.237 182.886 202.139 179.579 203.792C171.643 207.264 163.79 210.984 156.019 214.952C148.249 219.085 140.313 222.805 132.211 226.112C124.275 229.419 115.843 231.816 106.915 233.304C96.1685 235.123 87.7365 233.552 81.6192 228.592C75.6672 223.632 72.7738 215.861 72.9392 205.28C73.2698 189.573 73.0218 173.949 72.1952 158.408C71.3685 142.701 70.1285 126.995 68.4752 111.288C67.8138 103.517 67.7312 95.7467 68.2272 87.976C68.7232 80.04 69.2192 72.1867 69.7152 64.416C70.0458 60.1173 71.6992 56.3973 74.6752 53.256C77.8165 49.9493 81.6192 48.1307 86.0832 47.8C91.2085 47.1387 96.2512 46.7253 101.211 46.56C106.171 46.3947 111.214 46.2293 116.339 46.064C125.598 45.7333 134.939 45.4027 144.363 45.072C153.953 44.576 163.377 44.2453 172.635 44.08C177.43 43.9147 181.15 44.9067 183.795 47.056C186.441 49.2053 187.763 52.1813 187.763 55.984C187.763 59.2907 186.275 62.432 183.299 65.408C180.488 68.2187 177.017 69.7893 172.883 70.12C167.593 70.2853 162.302 70.368 157.011 70.368C151.721 70.2027 146.43 70.12 141.139 70.12ZM79.6352 183.208C79.6352 187.837 79.5525 192.467 79.3872 197.096C79.3872 201.725 79.4698 206.355 79.6352 210.984C79.9658 216.605 82.1978 221.069 86.3312 224.376C90.6298 227.848 95.6725 229.088 101.459 228.096C104.27 227.435 106.998 226.773 109.643 226.112C112.454 225.616 115.182 225.037 117.827 224.376C131.054 220.739 143.537 215.696 155.275 209.248C167.014 202.965 178.67 196.6 190.243 190.152C191.566 189.325 192.971 188.168 194.459 186.68C195.947 185.192 196.361 183.621 195.699 181.968C195.038 180.315 193.467 179.405 190.987 179.24C188.673 179.075 186.854 179.24 185.531 179.736C180.571 181.224 175.694 183.043 170.899 185.192C166.105 187.176 161.31 189.077 156.515 190.896C148.91 194.037 141.139 197.179 133.203 200.32C125.433 203.461 117.662 206.355 109.891 209C101.625 211.976 97.2432 209.165 96.7472 200.568C96.4165 193.955 96.0032 187.341 95.5072 180.728C95.1765 174.115 95.0112 167.501 95.0112 160.888C94.8458 153.613 96.2512 148.571 99.2272 145.76C102.203 142.949 107.328 141.379 114.603 141.048C124.523 140.717 134.361 140.304 144.115 139.808C154.035 139.147 163.873 138.485 173.627 137.824C174.95 137.659 176.19 137.08 177.347 136.088C178.67 134.931 179.993 133.856 181.315 132.864C180.158 131.872 179.001 130.715 177.843 129.392C176.686 128.069 175.446 127.325 174.123 127.16C170.982 126.664 167.675 126.416 164.203 126.416C160.897 126.251 157.59 126.333 154.283 126.664C146.513 127.325 138.659 128.069 130.723 128.896C122.953 129.557 115.182 130.136 107.411 130.632C101.79 130.963 97.8218 130.136 95.5072 128.152C93.1925 126.168 92.0352 122.365 92.0352 116.744C91.8698 110.461 91.7872 104.179 91.7872 97.896C91.7872 91.6133 91.8698 85.4133 92.0352 79.296C92.3658 74.5013 93.4405 71.1947 95.2592 69.376C97.0778 67.392 100.302 66.3173 104.931 66.152C114.19 65.656 123.531 65.3253 132.955 65.16C142.545 64.8293 151.969 64.5813 161.227 64.416C163.542 64.2507 165.939 64.3333 168.419 64.664C171.065 64.8293 173.462 64.5813 175.611 63.92C176.934 63.5893 178.174 62.68 179.331 61.192C180.654 59.704 181.398 58.2987 181.563 56.976C181.894 56.1493 181.315 55.0747 179.827 53.752C178.505 52.4293 177.182 51.52 175.859 51.024C174.371 50.528 172.718 50.1973 170.899 50.032C169.246 49.8667 167.51 49.8667 165.691 50.032C145.521 50.528 125.102 51.272 104.435 52.264C101.624 52.4293 98.7312 52.5947 95.7552 52.76C92.7792 52.76 89.8858 52.9253 87.0752 53.256C82.6112 54.0827 79.4698 55.8187 77.6512 58.464C75.9978 61.1093 75.2538 64.7467 75.4192 69.376C75.7498 76.9813 76.0805 85.744 76.4112 95.664C76.9072 105.584 77.3205 115.669 77.6512 125.92C78.1472 136.005 78.4778 145.429 78.6432 154.192C78.9738 162.789 79.2218 169.816 79.3872 175.272C79.5525 180.563 79.6352 183.208 79.6352 183.208Z" fill="#262626"/>
</svg>
